<mxfile host="app.diagrams.net" modified="2023-11-28T09:49:18.878Z" agent="Mozilla/5.0 (X11; Ubuntu; Linux x86_64; rv:109.0) Gecko/20100101 Firefox/119.0" etag="_kesQZOBrtDRzISuxyIg" version="21.2.3" type="device">
  <diagram name="Página-1" id="WCDleV6zMMcLqJlla_5E">
    <mxGraphModel dx="2187" dy="1964" grid="1" gridSize="10" guides="1" tooltips="1" connect="1" arrows="1" fold="1" page="1" pageScale="1" pageWidth="827" pageHeight="1169" math="0" shadow="0">
      <root>
        <mxCell id="0" />
        <mxCell id="1" parent="0" />
        <mxCell id="J7J2-nn8t5R3lg8hwhU8-1" value="&lt;div&gt;Voy a coger ahora la función X_i.&lt;/div&gt;&lt;div&gt;¿Qué necesita para ejecutarse?&lt;br&gt;&lt;/div&gt;" style="rounded=0;whiteSpace=wrap;html=1;" vertex="1" parent="1">
          <mxGeometry x="284" y="-230" width="260" height="80" as="geometry" />
        </mxCell>
        <mxCell id="J7J2-nn8t5R3lg8hwhU8-2" value="&lt;div&gt;¿Necesita datos de otros&lt;/div&gt;&lt;div&gt;nodos?&lt;br&gt;&lt;/div&gt;" style="ellipse;shape=cloud;whiteSpace=wrap;html=1;" vertex="1" parent="1">
          <mxGeometry x="660" y="15" width="200" height="100" as="geometry" />
        </mxCell>
        <mxCell id="J7J2-nn8t5R3lg8hwhU8-3" value="&lt;div&gt;¿El nodo j tiene &lt;br&gt;&lt;/div&gt;&lt;div&gt;GPU?&lt;br&gt;&lt;/div&gt;" style="ellipse;shape=cloud;whiteSpace=wrap;html=1;" vertex="1" parent="1">
          <mxGeometry x="320" y="517.5" width="170" height="100" as="geometry" />
        </mxCell>
        <mxCell id="J7J2-nn8t5R3lg8hwhU8-5" value="&lt;div&gt;Voy a ver la carga del nodo&lt;/div&gt;&lt;div&gt;X_j en los últimos x días&lt;br&gt;&lt;/div&gt;" style="rounded=1;whiteSpace=wrap;html=1;" vertex="1" parent="1">
          <mxGeometry x="310" y="830" width="170" height="70" as="geometry" />
        </mxCell>
        <mxCell id="J7J2-nn8t5R3lg8hwhU8-7" value="&lt;div&gt;t_ejec_nodo_j_func_i= TiempoCPUCores()&lt;/div&gt;&lt;div&gt;consumo_nodo_j_func_i = ConsumoCPUCores()&lt;br&gt;&lt;/div&gt;" style="rounded=1;whiteSpace=wrap;html=1;" vertex="1" parent="1">
          <mxGeometry x="315" y="20" width="170" height="70" as="geometry" />
        </mxCell>
        <mxCell id="J7J2-nn8t5R3lg8hwhU8-8" value="SÍ" style="ellipse;whiteSpace=wrap;html=1;" vertex="1" parent="1">
          <mxGeometry x="920" y="-15" width="40" height="30" as="geometry" />
        </mxCell>
        <mxCell id="J7J2-nn8t5R3lg8hwhU8-9" value="NO" style="ellipse;whiteSpace=wrap;html=1;" vertex="1" parent="1">
          <mxGeometry x="920" y="105" width="40" height="30" as="geometry" />
        </mxCell>
        <mxCell id="J7J2-nn8t5R3lg8hwhU8-12" value="&lt;div&gt;¿Hago uso de&lt;/div&gt;&lt;div&gt;ARM?&lt;br&gt;&lt;/div&gt;" style="ellipse;shape=cloud;whiteSpace=wrap;html=1;" vertex="1" parent="1">
          <mxGeometry x="1188.96" y="525" width="120" height="80" as="geometry" />
        </mxCell>
        <mxCell id="J7J2-nn8t5R3lg8hwhU8-13" value="SÍ" style="ellipse;whiteSpace=wrap;html=1;" vertex="1" parent="1">
          <mxGeometry x="1448.96" y="460" width="40" height="30" as="geometry" />
        </mxCell>
        <mxCell id="J7J2-nn8t5R3lg8hwhU8-14" value="NO" style="ellipse;whiteSpace=wrap;html=1;" vertex="1" parent="1">
          <mxGeometry x="1448.96" y="645" width="40" height="30" as="geometry" />
        </mxCell>
        <mxCell id="J7J2-nn8t5R3lg8hwhU8-18" value="&lt;div&gt;t_ejec_fin_nodo_j_func_i =(1+%ijx)t_ejec_nodo_j_func_i&lt;/div&gt;&lt;div&gt;consumo_fin_nodo_j_func_i=(1+%ijx)consumo_nodo_j_func_i&lt;br&gt;&lt;/div&gt;" style="rounded=1;whiteSpace=wrap;html=1;" vertex="1" parent="1">
          <mxGeometry x="640" y="817.5" width="300" height="95" as="geometry" />
        </mxCell>
        <mxCell id="J7J2-nn8t5R3lg8hwhU8-19" value="" style="endArrow=classic;html=1;rounded=0;exitX=1;exitY=0.5;exitDx=0;exitDy=0;entryX=0;entryY=0.5;entryDx=0;entryDy=0;" edge="1" parent="1" source="J7J2-nn8t5R3lg8hwhU8-5" target="J7J2-nn8t5R3lg8hwhU8-18">
          <mxGeometry width="50" height="50" relative="1" as="geometry">
            <mxPoint x="550" y="680" as="sourcePoint" />
            <mxPoint x="600" y="630" as="targetPoint" />
          </mxGeometry>
        </mxCell>
        <mxCell id="J7J2-nn8t5R3lg8hwhU8-20" value="%ijx" style="text;html=1;strokeColor=none;fillColor=none;align=center;verticalAlign=middle;whiteSpace=wrap;rounded=0;" vertex="1" parent="1">
          <mxGeometry x="530" y="840" width="60" height="30" as="geometry" />
        </mxCell>
        <mxCell id="J7J2-nn8t5R3lg8hwhU8-21" value="&lt;div&gt;Tengo los valores t_ejec_fin_nodo_j_func_i,&lt;/div&gt;&lt;div&gt;consumo_fin_nodo_j_func_i&lt;br&gt;&lt;/div&gt;" style="rounded=1;whiteSpace=wrap;html=1;" vertex="1" parent="1">
          <mxGeometry x="310" y="990" width="170" height="60" as="geometry" />
        </mxCell>
        <mxCell id="J7J2-nn8t5R3lg8hwhU8-22" value="Para el nodo j" style="rounded=0;whiteSpace=wrap;html=1;" vertex="1" parent="1">
          <mxGeometry x="300" y="-100" width="205" height="60" as="geometry" />
        </mxCell>
        <mxCell id="J7J2-nn8t5R3lg8hwhU8-24" value="SÍ" style="ellipse;whiteSpace=wrap;html=1;" vertex="1" parent="1">
          <mxGeometry x="600" y="552.5" width="40" height="30" as="geometry" />
        </mxCell>
        <mxCell id="J7J2-nn8t5R3lg8hwhU8-25" value="NO" style="ellipse;whiteSpace=wrap;html=1;" vertex="1" parent="1">
          <mxGeometry x="600" y="652.5" width="40" height="30" as="geometry" />
        </mxCell>
        <mxCell id="J7J2-nn8t5R3lg8hwhU8-26" value="&lt;div&gt;¿Necesita X_i&lt;/div&gt;&lt;div&gt;usar GPU?&lt;br&gt;&lt;/div&gt;" style="ellipse;shape=cloud;whiteSpace=wrap;html=1;" vertex="1" parent="1">
          <mxGeometry x="750" y="522.5" width="120" height="80" as="geometry" />
        </mxCell>
        <mxCell id="J7J2-nn8t5R3lg8hwhU8-27" value="SÍ" style="ellipse;whiteSpace=wrap;html=1;" vertex="1" parent="1">
          <mxGeometry x="970" y="547.5" width="40" height="30" as="geometry" />
        </mxCell>
        <mxCell id="J7J2-nn8t5R3lg8hwhU8-29" value="NO" style="ellipse;whiteSpace=wrap;html=1;" vertex="1" parent="1">
          <mxGeometry x="970" y="667.5" width="40" height="30" as="geometry" />
        </mxCell>
        <mxCell id="J7J2-nn8t5R3lg8hwhU8-30" value="" style="endArrow=classic;html=1;rounded=0;exitX=0;exitY=0.5;exitDx=0;exitDy=0;entryX=0;entryY=0.5;entryDx=0;entryDy=0;" edge="1" parent="1" source="J7J2-nn8t5R3lg8hwhU8-21" target="J7J2-nn8t5R3lg8hwhU8-22">
          <mxGeometry width="50" height="50" relative="1" as="geometry">
            <mxPoint x="420" y="730" as="sourcePoint" />
            <mxPoint x="470" y="680" as="targetPoint" />
            <Array as="points">
              <mxPoint x="100" y="1020" />
              <mxPoint x="100" y="-70" />
            </Array>
          </mxGeometry>
        </mxCell>
        <mxCell id="J7J2-nn8t5R3lg8hwhU8-31" value="j=1,...M" style="text;html=1;strokeColor=none;fillColor=none;align=center;verticalAlign=middle;whiteSpace=wrap;rounded=0;" vertex="1" parent="1">
          <mxGeometry x="100" y="420" width="60" height="30" as="geometry" />
        </mxCell>
        <mxCell id="J7J2-nn8t5R3lg8hwhU8-34" value="&lt;div&gt;Decido en qué nodo&lt;/div&gt;&lt;div&gt;lanzar la función X_i&lt;/div&gt;&lt;div&gt;tal que minimizo&lt;/div&gt;&lt;div&gt;consumo y tiempo&lt;br&gt;&lt;/div&gt;" style="shape=process;whiteSpace=wrap;html=1;backgroundOutline=1;" vertex="1" parent="1">
          <mxGeometry x="320" y="1160" width="160" height="70" as="geometry" />
        </mxCell>
        <mxCell id="J7J2-nn8t5R3lg8hwhU8-35" value="" style="endArrow=classic;html=1;rounded=0;exitX=0.5;exitY=1;exitDx=0;exitDy=0;" edge="1" parent="1" source="J7J2-nn8t5R3lg8hwhU8-21">
          <mxGeometry width="50" height="50" relative="1" as="geometry">
            <mxPoint x="420" y="1010" as="sourcePoint" />
            <mxPoint x="395" y="1160" as="targetPoint" />
          </mxGeometry>
        </mxCell>
        <mxCell id="J7J2-nn8t5R3lg8hwhU8-36" value="&lt;div&gt;[t_ejec_1,...,t_ejec_N]&lt;/div&gt;&lt;div&gt;[consumo_1,...,consumo_N]&lt;br&gt;&lt;/div&gt;" style="text;html=1;strokeColor=none;fillColor=none;align=center;verticalAlign=middle;whiteSpace=wrap;rounded=0;" vertex="1" parent="1">
          <mxGeometry x="445" y="1070" width="60" height="30" as="geometry" />
        </mxCell>
        <mxCell id="J7J2-nn8t5R3lg8hwhU8-37" value="" style="endArrow=classic;html=1;rounded=0;exitX=0;exitY=0.5;exitDx=0;exitDy=0;entryX=0;entryY=0.388;entryDx=0;entryDy=0;entryPerimeter=0;" edge="1" parent="1" source="J7J2-nn8t5R3lg8hwhU8-34" target="J7J2-nn8t5R3lg8hwhU8-1">
          <mxGeometry width="50" height="50" relative="1" as="geometry">
            <mxPoint x="420" y="1010" as="sourcePoint" />
            <mxPoint x="470" y="960" as="targetPoint" />
            <Array as="points">
              <mxPoint x="-30" y="1195" />
              <mxPoint x="-30" y="-199" />
            </Array>
          </mxGeometry>
        </mxCell>
        <mxCell id="J7J2-nn8t5R3lg8hwhU8-38" value="i=1,...N" style="text;html=1;strokeColor=none;fillColor=none;align=center;verticalAlign=middle;whiteSpace=wrap;rounded=0;" vertex="1" parent="1">
          <mxGeometry x="-100" y="430" width="60" height="30" as="geometry" />
        </mxCell>
        <mxCell id="J7J2-nn8t5R3lg8hwhU8-39" value="" style="endArrow=classic;html=1;rounded=0;exitX=0.936;exitY=0.578;exitDx=0;exitDy=0;exitPerimeter=0;entryX=0.16;entryY=0.55;entryDx=0;entryDy=0;entryPerimeter=0;" edge="1" parent="1" target="J7J2-nn8t5R3lg8hwhU8-12">
          <mxGeometry width="50" height="50" relative="1" as="geometry">
            <mxPoint x="1010" y="567.02" as="sourcePoint" />
            <mxPoint x="918.96" y="440" as="targetPoint" />
          </mxGeometry>
        </mxCell>
        <mxCell id="J7J2-nn8t5R3lg8hwhU8-40" value="" style="endArrow=classic;html=1;rounded=0;exitX=0.5;exitY=1;exitDx=0;exitDy=0;entryX=0.5;entryY=0;entryDx=0;entryDy=0;" edge="1" parent="1" source="J7J2-nn8t5R3lg8hwhU8-5" target="J7J2-nn8t5R3lg8hwhU8-21">
          <mxGeometry width="50" height="50" relative="1" as="geometry">
            <mxPoint x="720" y="900" as="sourcePoint" />
            <mxPoint x="770" y="850" as="targetPoint" />
          </mxGeometry>
        </mxCell>
        <mxCell id="J7J2-nn8t5R3lg8hwhU8-41" value="&lt;div&gt;t_ejec_fin_nodo_j_func_i&lt;/div&gt;&lt;div&gt;consumo_fin_nodo_j_func_i&lt;br&gt;&lt;/div&gt;" style="text;html=1;strokeColor=none;fillColor=none;align=center;verticalAlign=middle;whiteSpace=wrap;rounded=0;" vertex="1" parent="1">
          <mxGeometry x="445" y="930" width="60" height="30" as="geometry" />
        </mxCell>
        <mxCell id="J7J2-nn8t5R3lg8hwhU8-42" value="" style="endArrow=classic;html=1;rounded=0;exitX=0.438;exitY=0.988;exitDx=0;exitDy=0;exitPerimeter=0;" edge="1" parent="1" source="J7J2-nn8t5R3lg8hwhU8-1">
          <mxGeometry width="50" height="50" relative="1" as="geometry">
            <mxPoint x="440" as="sourcePoint" />
            <mxPoint x="398" y="-100" as="targetPoint" />
          </mxGeometry>
        </mxCell>
        <mxCell id="J7J2-nn8t5R3lg8hwhU8-43" value="" style="endArrow=classic;html=1;rounded=0;entryX=0.5;entryY=0;entryDx=0;entryDy=0;" edge="1" parent="1" target="J7J2-nn8t5R3lg8hwhU8-7">
          <mxGeometry width="50" height="50" relative="1" as="geometry">
            <mxPoint x="400" y="-40" as="sourcePoint" />
            <mxPoint x="490" y="-50" as="targetPoint" />
          </mxGeometry>
        </mxCell>
        <mxCell id="J7J2-nn8t5R3lg8hwhU8-45" value="" style="endArrow=classic;html=1;rounded=0;exitX=0.875;exitY=0.5;exitDx=0;exitDy=0;exitPerimeter=0;" edge="1" parent="1" source="J7J2-nn8t5R3lg8hwhU8-2" target="J7J2-nn8t5R3lg8hwhU8-8">
          <mxGeometry width="50" height="50" relative="1" as="geometry">
            <mxPoint x="800" y="215" as="sourcePoint" />
            <mxPoint x="850" y="165" as="targetPoint" />
          </mxGeometry>
        </mxCell>
        <mxCell id="J7J2-nn8t5R3lg8hwhU8-46" value="" style="endArrow=classic;html=1;rounded=0;entryX=0;entryY=0;entryDx=0;entryDy=0;" edge="1" parent="1" target="J7J2-nn8t5R3lg8hwhU8-9">
          <mxGeometry width="50" height="50" relative="1" as="geometry">
            <mxPoint x="840" y="65" as="sourcePoint" />
            <mxPoint x="850" y="165" as="targetPoint" />
          </mxGeometry>
        </mxCell>
        <mxCell id="J7J2-nn8t5R3lg8hwhU8-47" value="" style="endArrow=classic;html=1;rounded=0;exitX=0.875;exitY=0.5;exitDx=0;exitDy=0;exitPerimeter=0;entryX=0;entryY=0.5;entryDx=0;entryDy=0;" edge="1" parent="1" source="J7J2-nn8t5R3lg8hwhU8-3" target="J7J2-nn8t5R3lg8hwhU8-24">
          <mxGeometry width="50" height="50" relative="1" as="geometry">
            <mxPoint x="450" y="512.5" as="sourcePoint" />
            <mxPoint x="500" y="462.5" as="targetPoint" />
          </mxGeometry>
        </mxCell>
        <mxCell id="J7J2-nn8t5R3lg8hwhU8-48" value="" style="endArrow=classic;html=1;rounded=0;exitX=0.875;exitY=0.5;exitDx=0;exitDy=0;exitPerimeter=0;entryX=0;entryY=0.267;entryDx=0;entryDy=0;entryPerimeter=0;" edge="1" parent="1" source="J7J2-nn8t5R3lg8hwhU8-3" target="J7J2-nn8t5R3lg8hwhU8-25">
          <mxGeometry width="50" height="50" relative="1" as="geometry">
            <mxPoint x="450" y="512.5" as="sourcePoint" />
            <mxPoint x="500" y="462.5" as="targetPoint" />
          </mxGeometry>
        </mxCell>
        <mxCell id="J7J2-nn8t5R3lg8hwhU8-49" value="" style="endArrow=classic;html=1;rounded=0;exitX=1;exitY=0.5;exitDx=0;exitDy=0;entryX=0.16;entryY=0.55;entryDx=0;entryDy=0;entryPerimeter=0;" edge="1" parent="1" source="J7J2-nn8t5R3lg8hwhU8-24" target="J7J2-nn8t5R3lg8hwhU8-26">
          <mxGeometry width="50" height="50" relative="1" as="geometry">
            <mxPoint x="450" y="512.5" as="sourcePoint" />
            <mxPoint x="500" y="462.5" as="targetPoint" />
          </mxGeometry>
        </mxCell>
        <mxCell id="J7J2-nn8t5R3lg8hwhU8-50" value="" style="endArrow=classic;html=1;rounded=0;exitX=0.875;exitY=0.5;exitDx=0;exitDy=0;exitPerimeter=0;entryX=0;entryY=0.5;entryDx=0;entryDy=0;" edge="1" parent="1" source="J7J2-nn8t5R3lg8hwhU8-26" target="J7J2-nn8t5R3lg8hwhU8-27">
          <mxGeometry width="50" height="50" relative="1" as="geometry">
            <mxPoint x="450" y="512.5" as="sourcePoint" />
            <mxPoint x="500" y="462.5" as="targetPoint" />
          </mxGeometry>
        </mxCell>
        <mxCell id="J7J2-nn8t5R3lg8hwhU8-51" value="" style="endArrow=classic;html=1;rounded=0;exitX=0.875;exitY=0.5;exitDx=0;exitDy=0;exitPerimeter=0;entryX=0;entryY=0.5;entryDx=0;entryDy=0;" edge="1" parent="1" source="J7J2-nn8t5R3lg8hwhU8-26" target="J7J2-nn8t5R3lg8hwhU8-29">
          <mxGeometry width="50" height="50" relative="1" as="geometry">
            <mxPoint x="450" y="512.5" as="sourcePoint" />
            <mxPoint x="500" y="462.5" as="targetPoint" />
          </mxGeometry>
        </mxCell>
        <mxCell id="J7J2-nn8t5R3lg8hwhU8-52" value="" style="endArrow=classic;html=1;rounded=0;exitX=0.875;exitY=0.5;exitDx=0;exitDy=0;exitPerimeter=0;entryX=0;entryY=1;entryDx=0;entryDy=0;" edge="1" parent="1" source="J7J2-nn8t5R3lg8hwhU8-12" target="J7J2-nn8t5R3lg8hwhU8-13">
          <mxGeometry width="50" height="50" relative="1" as="geometry">
            <mxPoint x="970" y="512.5" as="sourcePoint" />
            <mxPoint x="1020" y="462.5" as="targetPoint" />
          </mxGeometry>
        </mxCell>
        <mxCell id="J7J2-nn8t5R3lg8hwhU8-53" value="" style="endArrow=classic;html=1;rounded=0;exitX=0.875;exitY=0.5;exitDx=0;exitDy=0;exitPerimeter=0;entryX=-0.074;entryY=0.283;entryDx=0;entryDy=0;entryPerimeter=0;" edge="1" parent="1" source="J7J2-nn8t5R3lg8hwhU8-12" target="J7J2-nn8t5R3lg8hwhU8-14">
          <mxGeometry width="50" height="50" relative="1" as="geometry">
            <mxPoint x="970" y="512.5" as="sourcePoint" />
            <mxPoint x="1020" y="462.5" as="targetPoint" />
          </mxGeometry>
        </mxCell>
        <mxCell id="J7J2-nn8t5R3lg8hwhU8-56" value="&lt;div&gt;t_ejec_nodo_j_func_i +=t_acceso+sum(t_transfer_nodo_k)&lt;/div&gt;&lt;div&gt;donde k es el índice de los nodos necesarios&lt;br&gt;&lt;/div&gt;" style="rounded=1;whiteSpace=wrap;html=1;" vertex="1" parent="1">
          <mxGeometry x="1047" y="-30" width="273" height="60" as="geometry" />
        </mxCell>
        <mxCell id="J7J2-nn8t5R3lg8hwhU8-57" value="&lt;div&gt;t_ejec_nodo_j_func_i +=t_acceso&lt;/div&gt;" style="rounded=1;whiteSpace=wrap;html=1;" vertex="1" parent="1">
          <mxGeometry x="1040" y="90" width="273" height="60" as="geometry" />
        </mxCell>
        <mxCell id="J7J2-nn8t5R3lg8hwhU8-58" value="" style="endArrow=classic;html=1;rounded=0;exitX=1;exitY=0.5;exitDx=0;exitDy=0;entryX=0;entryY=0.5;entryDx=0;entryDy=0;" edge="1" parent="1" source="J7J2-nn8t5R3lg8hwhU8-8" target="J7J2-nn8t5R3lg8hwhU8-56">
          <mxGeometry width="50" height="50" relative="1" as="geometry">
            <mxPoint x="770" y="35" as="sourcePoint" />
            <mxPoint x="820" y="-15" as="targetPoint" />
          </mxGeometry>
        </mxCell>
        <mxCell id="J7J2-nn8t5R3lg8hwhU8-59" value="" style="endArrow=classic;html=1;rounded=0;exitX=1;exitY=0.5;exitDx=0;exitDy=0;entryX=0;entryY=0.5;entryDx=0;entryDy=0;" edge="1" parent="1" source="J7J2-nn8t5R3lg8hwhU8-9" target="J7J2-nn8t5R3lg8hwhU8-57">
          <mxGeometry width="50" height="50" relative="1" as="geometry">
            <mxPoint x="770" y="35" as="sourcePoint" />
            <mxPoint x="820" y="-15" as="targetPoint" />
          </mxGeometry>
        </mxCell>
        <mxCell id="J7J2-nn8t5R3lg8hwhU8-61" value="&lt;div&gt;t_ejec_nodo_j_func_i=t_ejec_nodo_j_func*(rendimiento_GPU_con_P_cores)&lt;/div&gt;&lt;div&gt;consumo_nodo_j_func_i=MejoraARM(PenalizacionGPU(consumo_nodo_j_func))&lt;br&gt;&lt;/div&gt;" style="rounded=1;whiteSpace=wrap;html=1;" vertex="1" parent="1">
          <mxGeometry x="1620" y="445" width="520" height="60" as="geometry" />
        </mxCell>
        <mxCell id="J7J2-nn8t5R3lg8hwhU8-63" value="" style="endArrow=classic;startArrow=classic;html=1;rounded=0;entryX=0.07;entryY=0.4;entryDx=0;entryDy=0;entryPerimeter=0;" edge="1" parent="1" target="J7J2-nn8t5R3lg8hwhU8-2">
          <mxGeometry width="50" height="50" relative="1" as="geometry">
            <mxPoint x="480" y="55" as="sourcePoint" />
            <mxPoint x="680" y="230" as="targetPoint" />
          </mxGeometry>
        </mxCell>
        <mxCell id="J7J2-nn8t5R3lg8hwhU8-67" value="&lt;div&gt;Ejecución en CPU.&lt;/div&gt;&lt;div&gt;Tener en cuenta cores&lt;br&gt;&lt;/div&gt;" style="text;html=1;strokeColor=none;fillColor=none;align=center;verticalAlign=middle;whiteSpace=wrap;rounded=0;" vertex="1" parent="1">
          <mxGeometry x="470" y="15" width="210" height="30" as="geometry" />
        </mxCell>
        <mxCell id="J7J2-nn8t5R3lg8hwhU8-68" value="" style="endArrow=classic;html=1;rounded=0;exitX=0.5;exitY=1;exitDx=0;exitDy=0;entryX=0.465;entryY=0.075;entryDx=0;entryDy=0;entryPerimeter=0;" edge="1" parent="1" source="J7J2-nn8t5R3lg8hwhU8-7" target="J7J2-nn8t5R3lg8hwhU8-3">
          <mxGeometry width="50" height="50" relative="1" as="geometry">
            <mxPoint x="530" y="460" as="sourcePoint" />
            <mxPoint x="580" y="410" as="targetPoint" />
          </mxGeometry>
        </mxCell>
        <mxCell id="J7J2-nn8t5R3lg8hwhU8-69" value="" style="endArrow=classic;html=1;rounded=0;exitX=0.453;exitY=0.945;exitDx=0;exitDy=0;exitPerimeter=0;entryX=0.5;entryY=0;entryDx=0;entryDy=0;" edge="1" parent="1" source="J7J2-nn8t5R3lg8hwhU8-3" target="J7J2-nn8t5R3lg8hwhU8-5">
          <mxGeometry width="50" height="50" relative="1" as="geometry">
            <mxPoint x="660" y="880" as="sourcePoint" />
            <mxPoint x="710" y="830" as="targetPoint" />
          </mxGeometry>
        </mxCell>
        <mxCell id="J7J2-nn8t5R3lg8hwhU8-70" value="&lt;div&gt;t_ejec_nodo_j_func_i=t_ejec_nodo_j_func*(rendimiento_GPU_con_P_cores)&lt;/div&gt;&lt;div&gt;consumo_nodo_j_func_i=PenalizacionGPU(consumo_nodo_j_func)&lt;br&gt;&lt;/div&gt;" style="rounded=1;whiteSpace=wrap;html=1;" vertex="1" parent="1">
          <mxGeometry x="1620" y="630" width="520" height="60" as="geometry" />
        </mxCell>
        <mxCell id="J7J2-nn8t5R3lg8hwhU8-71" value="" style="endArrow=classic;html=1;rounded=0;exitX=1;exitY=0.5;exitDx=0;exitDy=0;entryX=0;entryY=0.5;entryDx=0;entryDy=0;" edge="1" parent="1" source="J7J2-nn8t5R3lg8hwhU8-13" target="J7J2-nn8t5R3lg8hwhU8-61">
          <mxGeometry width="50" height="50" relative="1" as="geometry">
            <mxPoint x="1450" y="590" as="sourcePoint" />
            <mxPoint x="1500" y="540" as="targetPoint" />
          </mxGeometry>
        </mxCell>
        <mxCell id="J7J2-nn8t5R3lg8hwhU8-72" value="" style="endArrow=classic;html=1;rounded=0;exitX=1;exitY=0.5;exitDx=0;exitDy=0;entryX=0;entryY=0.5;entryDx=0;entryDy=0;" edge="1" parent="1" source="J7J2-nn8t5R3lg8hwhU8-14" target="J7J2-nn8t5R3lg8hwhU8-70">
          <mxGeometry width="50" height="50" relative="1" as="geometry">
            <mxPoint x="1450" y="590" as="sourcePoint" />
            <mxPoint x="1500" y="540" as="targetPoint" />
          </mxGeometry>
        </mxCell>
        <mxCell id="J7J2-nn8t5R3lg8hwhU8-73" value="&lt;div&gt;Nota: Usar la GPU va a implicar bajar tiempo de ejecución,i.e.,rendimiento_GPU_con_P_cores&amp;lt;1.&lt;/div&gt;&lt;div&gt;Supone también aumento de consumo energético&lt;br&gt;&lt;/div&gt;" style="text;html=1;strokeColor=none;fillColor=none;align=center;verticalAlign=middle;whiteSpace=wrap;rounded=0;" vertex="1" parent="1">
          <mxGeometry x="1594" y="390" width="376" height="30" as="geometry" />
        </mxCell>
      </root>
    </mxGraphModel>
  </diagram>
</mxfile>
